<svg xmlns="http://www.w3.org/2000/svg" width="20" height="18" viewBox="0 0 20 18">
  <g id="Group_1" data-name="Group 1" transform="translate(-326 -319)">
    <path id="Rectangle_6_Stroke_" data-name="Rectangle 6 (Stroke)" d="M0,4A4,4,0,0,1,4,0H16a4,4,0,0,1,4,4V14a4,4,0,0,1-4,4H4a4,4,0,0,1-4-4ZM4,2A2,2,0,0,0,2,4V14a2,2,0,0,0,2,2H16a2,2,0,0,0,2-2V4a2,2,0,0,0-2-2Z" transform="translate(326 319)"/>
    <path id="Vector_1_Stroke_" data-name="Vector 1 (Stroke)" d="M7.543,5.939,0,1.748.971,0,8.514,4.191a2,2,0,0,0,1.943,0L18,0l.971,1.748L11.428,5.939A4,4,0,0,1,7.543,5.939Z" transform="translate(326.514 321.126)"/>
  </g>
</svg>
