<svg xmlns="http://www.w3.org/2000/svg" width="20" height="17" viewBox="0 0 20 17">
  <g id="name_icon" data-name="name icon" transform="translate(-334 -318)">
    <path id="Rectangle_6_Stroke_" data-name="Rectangle 6 (Stroke)" d="M0,4A4,4,0,0,1,4,0H16a4,4,0,0,1,4,4v9a4,4,0,0,1-4,4H4a4,4,0,0,1-4-4ZM4,2A2,2,0,0,0,2,4v9a2,2,0,0,0,2,2H16a2,2,0,0,0,2-2V4a2,2,0,0,0-2-2Z" transform="translate(334 318)"/>
    <path id="Rectangle_7_Stroke_" data-name="Rectangle 7 (Stroke)" d="M0,2A2,2,0,0,1,2,0H4A2,2,0,0,1,6,2V3A2,2,0,0,1,4,5H2A2,2,0,0,1,0,3ZM4,2H2V3H4Z" transform="translate(338 322)"/>
    <path id="Line_8_Stroke_" data-name="Line 8 (Stroke)" d="M0,1A1,1,0,0,1,1,0H4A1,1,0,0,1,4,2H1A1,1,0,0,1,0,1Z" transform="translate(345 323)"/>
    <path id="Line_9_Stroke_" data-name="Line 9 (Stroke)" d="M0,1A1,1,0,0,1,1,0H11a1,1,0,0,1,0,2H1A1,1,0,0,1,0,1Z" transform="translate(338 329)"/>
  </g>
</svg>
