<svg xmlns="http://www.w3.org/2000/svg" width="16" height="22" viewBox="0 0 16 22">
  <g id="phone_icon" data-name="phone icon" transform="translate(-344 -499)">
    <path id="Rectangle_5_Stroke_" data-name="Rectangle 5 (Stroke)" d="M0,4A4,4,0,0,1,4,0h8a4,4,0,0,1,4,4V18a4,4,0,0,1-4,4H4a4,4,0,0,1-4-4ZM4,2A2,2,0,0,0,2,4V18a2,2,0,0,0,2,2h8a2,2,0,0,0,2-2V4a2,2,0,0,0-2-2Z" transform="translate(344 499)"/>
    <path id="Ellipse_1" data-name="Ellipse 1" d="M2,1A1,1,0,1,1,1,0,1,1,0,0,1,2,1Z" transform="translate(351 515)"/>
    <path id="Line_10_Stroke_" data-name="Line 10 (Stroke)" d="M0,1A1,1,0,0,1,1,0H3A1,1,0,0,1,3,2H1A1,1,0,0,1,0,1Z" transform="translate(350 503)"/>
  </g>
</svg>
