<svg xmlns="http://www.w3.org/2000/svg" width="44" height="27.5" viewBox="0 0 44 27.5">
  <g id="payment_cash" data-name="payment cash" transform="translate(-36 -151)">
    <rect id="bg" width="44" height="27.5" rx="6" transform="translate(36 151)" fill="#ffbd2f"/>
    <path id="_" data-name="$" d="M5.4,12.771a3.4,3.4,0,0,0,3-3.283C8.4,8,7.524,6.715,5.313,6.22L3.878,5.907c-.644-.148-.974-.495-.974-.94,0-.528.462-1.072,1.386-1.072a1.53,1.53,0,0,1,1.683,1.37l2.293-.611A3.586,3.586,0,0,0,5.4,1.832V0H3.5V1.782A3.5,3.5,0,0,0,.38,5.2c0,1.568,1.138,2.69,2.986,3.135l1.469.347c.66.148,1.023.462,1.023.94,0,.644-.594,1.04-1.419,1.04A1.953,1.953,0,0,1,2.277,8.844L0,9.355A3.951,3.951,0,0,0,3.5,12.8V14.57H5.4Z" transform="translate(53.417 157.417)"/>
  </g>
</svg>
