<svg xmlns="http://www.w3.org/2000/svg" width="17.817" height="21.022" viewBox="0 0 17.817 21.022">
  <g id="paypal" transform="translate(-49.091 -354.49)">
    <path id="Vector" d="M17.675,9.973q-1.019,5.212-6.63,5.21h-.516a.777.777,0,0,0-.518.194.84.84,0,0,0-.279.5l-.048.221-.645,4.059-.025.176a.824.824,0,0,1-.288.5.777.777,0,0,1-.521.194H5.262a.461.461,0,0,1-.386-.175.533.533,0,0,1-.105-.423c.071-.435.173-1.094.312-1.971s.24-1.533.312-1.97.175-1.094.317-1.966.247-1.528.316-1.966a.453.453,0,0,1,.505-.433H8.068a12.013,12.013,0,0,0,2.771-.246,7.057,7.057,0,0,0,3.367-1.691A7.066,7.066,0,0,0,16.025,7.3a10.387,10.387,0,0,0,.411-1.561c.007-.048.016-.077.029-.086a.038.038,0,0,1,.041-.013.441.441,0,0,1,.072.041,2.971,2.971,0,0,1,1.143,1.9h0A6.248,6.248,0,0,1,17.675,9.973Z" transform="translate(49.091 354.49)"/>
    <path id="Vector-2" data-name="Vector" d="M15.163,7.041a5.7,5.7,0,0,1-3.543,3.7,9.307,9.307,0,0,1-2.958.5c0,.007-.351.008-1.055.008l-1.054-.008A1.258,1.258,0,0,0,5.17,12.357q-.023.093-1,6.217a.126.126,0,0,1-.141.119H.572a.552.552,0,0,1-.43-.193.547.547,0,0,1-.134-.455L2.728.785A.915.915,0,0,1,3.05.222.916.916,0,0,1,3.655,0h7.016a6.159,6.159,0,0,1,1.142.153,7.518,7.518,0,0,1,1.31.375,3.977,3.977,0,0,1,1.919,1.443,3.958,3.958,0,0,1,.663,2.3h0A8.256,8.256,0,0,1,15.163,7.041Z" transform="translate(49.091 354.49)"/>
  </g>
</svg>
